
<svg xmlns="http://www.w3.org/2000/svg" viewBox="0 0 900 520">
<defs>
<linearGradient id="bg" x1="0" x2="1" y1="0" y2="1"><stop offset="0" stop-color="#ffe3f7"/><stop offset=".5" stop-color="#f1e7ff"/><stop offset="1" stop-color="#dff7ff"/></linearGradient>
<filter id="s"><feDropShadow dx="0" dy="8" stdDeviation="6" flood-opacity=".18"/></filter>
</defs>
<rect width="900" height="520" fill="url(#bg)"/>
<circle cx="115" cy="92" r="45" fill="#fff3a8" opacity=".85"/><circle cx="790" cy="92" r="38" fill="#baffd4" opacity=".8"/>
<path d="M0 420 C150 350 290 450 430 390 S720 350 900 415 V520 H0Z" fill="#baffd4" opacity=".7"/>

<g filter="url(#s)">
<path d="M250 390 H650 V245 L600 190 L550 245 V175 L500 120 L450 175 L400 120 L350 175 V245 L300 190 L250 245Z" fill="#ffb8e9" stroke="#fff" stroke-width="12"/>
<path d="M400 390 V295 Q450 240 500 295 V390Z" fill="#8b5cf6"/>
<circle cx="450" cy="235" r="32" fill="#fff8c8"/>
<path d="M260 245 H640" stroke="#fff" stroke-width="16"/>
</g>
<text x="450" y="485" text-anchor="middle" font-family="Arial Rounded MT Bold, Arial" font-size="42" fill="#7d3cdf">Royal Palace</text>
</svg>