
<svg xmlns="http://www.w3.org/2000/svg" viewBox="0 0 900 520">
<defs>
<linearGradient id="bg" x1="0" x2="1" y1="0" y2="1"><stop offset="0" stop-color="#ffe3f7"/><stop offset=".5" stop-color="#f1e7ff"/><stop offset="1" stop-color="#dff7ff"/></linearGradient>
<filter id="s"><feDropShadow dx="0" dy="8" stdDeviation="6" flood-opacity=".18"/></filter>
</defs>
<rect width="900" height="520" fill="url(#bg)"/>
<circle cx="115" cy="92" r="45" fill="#fff3a8" opacity=".85"/><circle cx="790" cy="92" r="38" fill="#baffd4" opacity=".8"/>
<path d="M0 420 C150 350 290 450 430 390 S720 350 900 415 V520 H0Z" fill="#baffd4" opacity=".7"/>

<g filter="url(#s)" transform="translate(0,0)">
<circle cx="450" cy="150" r="70" fill="#ffd7bd" stroke="#fff" stroke-width="10"/>
<path d="M360 140 Q450 45 540 140 Q520 70 450 68 Q380 70 360 140Z" fill="#7d3cdf"/>
<path d="M392 97 L420 55 L450 98 L480 55 L508 97 Z" fill="#ffd86b" stroke="#fff" stroke-width="7"/>
<circle cx="425" cy="150" r="8" fill="#2f1c5b"/><circle cx="475" cy="150" r="8" fill="#2f1c5b"/>
<path d="M420 178 Q450 202 482 178" stroke="#d85b8c" stroke-width="8" fill="none" stroke-linecap="round"/>
<path d="M330 430 Q450 215 570 430 Z" fill="#ff62c7" stroke="#fff" stroke-width="12"/>
<path d="M380 430 Q450 300 520 430" fill="#8658f6" opacity=".55"/>
<circle cx="330" cy="285" r="28" fill="#ffd7bd"/><circle cx="570" cy="285" r="28" fill="#ffd7bd"/>
</g>
<text x="450" y="486" text-anchor="middle" font-family="Arial Rounded MT Bold, Arial" font-size="40" fill="#7d3cdf">Rainbow Princess</text>
</svg>